<svg width="156" height="71" viewBox="0 0 156 71" fill="none" xmlns="http://www.w3.org/2000/svg">
<rect x="50.8789" y="25.3564" width="32.8312" height="2.20509" rx="1.10254" transform="rotate(-30.3102 50.8789 25.3564)" fill="white" stroke="white"/>
<rect x="78.5298" y="8.82422" width="31.8337" height="2.20509" rx="1.10254" transform="rotate(30.2769 78.5298 8.82422)" fill="white" stroke="white"/>
<rect x="103.194" y="24.4961" width="21.2246" height="2.20509" rx="1.10254" transform="rotate(-29.5795 103.194 24.4961)" fill="white" stroke="white"/>
<rect x="105.521" y="24.0986" width="21.2633" height="2.20509" rx="1.10254" transform="rotate(90 105.521 24.0986)" fill="white" stroke="white"/>
<path fill-rule="evenodd" clip-rule="evenodd" d="M30.371 10.422C28.824 9.52883 26.918 9.52883 25.371 10.422L3.63574 22.9708C2.08874 23.864 1.13574 25.5146 1.13574 27.301V52.3987C1.13574 54.185 2.08874 55.8356 3.63574 56.7288L25.371 69.2777C26.918 70.1708 28.824 70.1708 30.371 69.2777L52.1062 56.7288C53.6533 55.8356 54.6062 54.185 54.6062 52.3987V27.301C54.6062 25.5146 53.6533 23.864 52.1062 22.9708L30.371 10.422ZM30.4503 13.257C28.9033 12.3638 26.9973 12.3638 25.4503 13.257L6.23852 24.3489C4.69152 25.242 3.73852 26.8927 3.73852 28.679V50.8628C3.73852 52.6492 4.69152 54.2998 6.23852 55.193L25.4503 66.2849C26.9973 67.1781 28.9033 67.1781 30.4503 66.2849L49.6621 55.193C51.2091 54.2998 52.1621 52.6492 52.1621 50.8628V28.679C52.1621 26.8927 51.2091 25.242 49.6621 24.3489L30.4503 13.257Z" fill="white"/>
<path d="M25.371 10.422L25.621 10.855L25.621 10.855L25.371 10.422ZM30.371 10.422L30.121 10.855L30.121 10.855L30.371 10.422ZM3.63574 22.9708L3.88574 23.4039L3.88574 23.4039L3.63574 22.9708ZM3.63574 56.7288L3.88574 56.2958L3.88574 56.2958L3.63574 56.7288ZM25.371 69.2777L25.621 68.8446L25.621 68.8446L25.371 69.2777ZM30.371 69.2777L30.121 68.8446L30.121 68.8446L30.371 69.2777ZM52.1062 56.7288L51.8562 56.2958L51.8562 56.2958L52.1062 56.7288ZM52.1062 22.9708L52.3562 22.5378L52.3562 22.5378L52.1062 22.9708ZM25.4503 13.257L25.7003 13.69L25.7003 13.69L25.4503 13.257ZM30.4503 13.257L30.2003 13.69L30.2003 13.69L30.4503 13.257ZM6.23852 24.3489L6.48852 24.7819L6.48852 24.7819L6.23852 24.3489ZM6.23852 55.193L5.98852 55.626L5.98852 55.626L6.23852 55.193ZM25.4503 66.2849L25.7003 65.8519L25.7003 65.8519L25.4503 66.2849ZM30.4503 66.2849L30.7003 66.7179L30.7003 66.7179L30.4503 66.2849ZM49.6621 55.193L49.4121 54.76L49.4121 54.76L49.6621 55.193ZM49.6621 24.3489L49.4121 24.7819L49.4121 24.7819L49.6621 24.3489ZM25.621 10.855C27.0133 10.0512 28.7287 10.0512 30.121 10.855L30.621 9.98898C28.9193 9.0065 26.8227 9.0065 25.121 9.98898L25.621 10.855ZM3.88574 23.4039L25.621 10.855L25.121 9.98898L3.38574 22.5378L3.88574 23.4039ZM1.63574 27.301C1.63574 25.6933 2.49344 24.2077 3.88574 23.4039L3.38574 22.5378C1.68404 23.5203 0.635742 25.336 0.635742 27.301H1.63574ZM1.63574 52.3987V27.301H0.635742V52.3987H1.63574ZM3.88574 56.2958C2.49344 55.4919 1.63574 54.0064 1.63574 52.3987H0.635742C0.635742 54.3636 1.68404 56.1793 3.38574 57.1618L3.88574 56.2958ZM25.621 68.8446L3.88574 56.2958L3.38574 57.1618L25.121 69.7107L25.621 68.8446ZM30.121 68.8446C28.7287 69.6485 27.0133 69.6485 25.621 68.8446L25.121 69.7107C26.8227 70.6932 28.9193 70.6932 30.621 69.7107L30.121 68.8446ZM51.8562 56.2958L30.121 68.8446L30.621 69.7107L52.3562 57.1618L51.8562 56.2958ZM54.1062 52.3987C54.1062 54.0064 53.2486 55.4919 51.8562 56.2958L52.3562 57.1618C54.058 56.1793 55.1062 54.3636 55.1062 52.3987H54.1062ZM54.1062 27.301V52.3987H55.1062V27.301H54.1062ZM51.8562 23.4039C53.2486 24.2077 54.1062 25.6933 54.1062 27.301H55.1062C55.1062 25.336 54.058 23.5203 52.3562 22.5378L51.8562 23.4039ZM30.121 10.855L51.8562 23.4039L52.3562 22.5378L30.621 9.98898L30.121 10.855ZM25.7003 13.69C27.0926 12.8861 28.808 12.8861 30.2003 13.69L30.7003 12.8239C28.9986 11.8415 26.902 11.8415 25.2003 12.8239L25.7003 13.69ZM6.48852 24.7819L25.7003 13.69L25.2003 12.8239L5.98852 23.9159L6.48852 24.7819ZM4.23852 28.679C4.23852 27.0713 5.09622 25.5857 6.48852 24.7819L5.98852 23.9159C4.28682 24.8983 3.23852 26.714 3.23852 28.679H4.23852ZM4.23852 50.8628V28.679H3.23852V50.8628H4.23852ZM6.48852 54.76C5.09622 53.9561 4.23852 52.4705 4.23852 50.8628H3.23852C3.23852 52.8278 4.28682 54.6435 5.98852 55.626L6.48852 54.76ZM25.7003 65.8519L6.48852 54.76L5.98852 55.626L25.2003 66.7179L25.7003 65.8519ZM30.2003 65.8519C28.808 66.6557 27.0926 66.6557 25.7003 65.8519L25.2003 66.7179C26.902 67.7004 28.9986 67.7004 30.7003 66.7179L30.2003 65.8519ZM49.4121 54.76L30.2003 65.8519L30.7003 66.7179L49.9121 55.626L49.4121 54.76ZM51.6621 50.8628C51.6621 52.4705 50.8044 53.9561 49.4121 54.76L49.9121 55.626C51.6138 54.6435 52.6621 52.8278 52.6621 50.8628H51.6621ZM51.6621 28.679V50.8628H52.6621V28.679H51.6621ZM49.4121 24.7819C50.8044 25.5857 51.6621 27.0713 51.6621 28.679H52.6621C52.6621 26.714 51.6138 24.8983 49.9121 23.9159L49.4121 24.7819ZM30.2003 13.69L49.4121 24.7819L49.9121 23.9159L30.7003 12.8239L30.2003 13.69Z" fill="white"/>
<rect x="27.3408" y="16.751" width="23.0746" height="2.20509" rx="1.10254" transform="rotate(29.9241 27.3408 16.751)" fill="white" stroke="white"/>
<rect x="26.3984" y="61.1016" width="23.0746" height="2.20509" rx="1.10254" transform="rotate(-30.9199 26.3984 61.1016)" fill="white" stroke="white"/>
<rect x="10.813" y="28.3516" width="23.0746" height="2.20509" rx="1.10254" transform="rotate(90 10.813 28.3516)" fill="white" stroke="white"/>
<path d="M131.41 3.91406H134.315V12.2065C134.315 12.9757 134.135 13.6619 133.775 14.2651C133.421 14.8683 132.923 15.3359 132.281 15.668C131.645 16 130.934 16.166 130.148 16.166C128.831 16.166 127.807 15.834 127.077 15.1699C126.346 14.5059 125.981 13.5651 125.981 12.3477H128.903C128.903 12.901 128.997 13.3022 129.185 13.5513C129.379 13.8003 129.7 13.9248 130.148 13.9248C130.552 13.9248 130.862 13.7754 131.078 13.4766C131.299 13.1722 131.41 12.7489 131.41 12.2065V3.91406ZM142.392 12.7876C142.392 12.3615 142.239 12.0295 141.935 11.7915C141.636 11.5535 141.108 11.3073 140.35 11.0527C139.591 10.7982 138.972 10.5519 138.49 10.314C136.924 9.54476 136.141 8.48779 136.141 7.14307C136.141 6.47347 136.335 5.88411 136.722 5.375C137.115 4.86035 137.668 4.46191 138.382 4.17969C139.096 3.89193 139.899 3.74805 140.79 3.74805C141.658 3.74805 142.436 3.90299 143.122 4.21289C143.814 4.52279 144.351 4.96549 144.732 5.54102C145.114 6.111 145.305 6.764 145.305 7.5H142.4C142.4 7.00749 142.248 6.62565 141.943 6.35449C141.645 6.08333 141.238 5.94775 140.723 5.94775C140.203 5.94775 139.791 6.06396 139.486 6.29639C139.188 6.52327 139.038 6.8138 139.038 7.16797C139.038 7.47786 139.204 7.76009 139.536 8.01465C139.868 8.26367 140.452 8.52376 141.288 8.79492C142.123 9.06055 142.809 9.34831 143.346 9.6582C144.652 10.4108 145.305 11.4484 145.305 12.771C145.305 13.828 144.907 14.658 144.11 15.2612C143.313 15.8644 142.22 16.166 140.831 16.166C139.852 16.166 138.963 15.9917 138.167 15.6431C137.375 15.2889 136.778 14.8075 136.374 14.1987C135.975 13.5845 135.776 12.8789 135.776 12.082H138.698C138.698 12.7295 138.864 13.2082 139.196 13.5181C139.533 13.8224 140.078 13.9746 140.831 13.9746C141.312 13.9746 141.692 13.8722 141.968 13.6675C142.25 13.4572 142.392 13.1639 142.392 12.7876Z" fill="white"/>
<path d="M154.747 20.8203H148.298V19.4238L151.269 16.3008C152.001 15.4671 152.367 14.8049 152.367 14.314C152.367 13.9162 152.28 13.6136 152.106 13.4062C151.933 13.1989 151.681 13.0952 151.351 13.0952C151.025 13.0952 150.761 13.2349 150.558 13.5142C150.354 13.7892 150.253 14.1341 150.253 14.5488H148.107C148.107 13.9818 148.249 13.4591 148.533 12.981C148.816 12.4985 149.21 12.1219 149.713 11.8511C150.217 11.5802 150.78 11.4448 151.402 11.4448C152.401 11.4448 153.169 11.6755 153.706 12.1367C154.248 12.598 154.519 13.2603 154.519 14.1235C154.519 14.4875 154.451 14.8429 154.315 15.1899C154.18 15.5327 153.968 15.8945 153.681 16.2754C153.397 16.652 152.938 17.1577 152.303 17.7925L151.11 19.1699H154.747V20.8203Z" fill="white"/>
</svg>
